<?xml version="1.0" encoding="UTF-8" standalone="no"?>
<!DOCTYPE svg PUBLIC "-//W3C//DTD SVG 1.1//EN"
 "http://www.w3.org/Graphics/SVG/1.1/DTD/svg11.dtd">
<!-- Generated by graphviz version 2.43.0 (0)
 -->
<!-- Title: G Pages: 1 -->
<svg width="1358pt" height="44pt"
 viewBox="0.00 0.00 1357.89 44.00" xmlns="http://www.w3.org/2000/svg" xmlns:xlink="http://www.w3.org/1999/xlink">
<g id="graph0" class="graph" transform="scale(1 1) rotate(0) translate(4 40)">
<title>G</title>
<polygon fill="white" stroke="transparent" points="-4,4 -4,-40 1353.89,-40 1353.89,4 -4,4"/>
<!-- a dummy -->
<g id="node1" class="node">
<title>a dummy</title>
<ellipse fill="none" stroke="black" cx="66.29" cy="-18" rx="66.09" ry="18"/>
<text text-anchor="middle" x="66.29" y="-14.3" font-family="Times,serif" font-size="14.00">This is label</text>
</g>
<!-- 4 -->
<g id="node2" class="node">
<title>4</title>
<g id="a_node2"><a xlink:title="&#10; &#160;&#160;&#160;&lt;table BORDER=&quot;0&quot; CELLBORDER=&quot;1&quot; CELLSPACING=&quot;0&quot; CELLPADDING=&quot;4&quot;&gt; &#10; &#160;&#160;&#160;&#160;&#160;&#160;&#160;&lt;tr&gt;&#10; &#160;&#160;&#160;&#160;&#160;&#160;&#160;&#160;&#160;&#160;&#160;&lt;td bgcolor=&quot;red&quot; port=&quot;L&quot;&gt;1&lt;/td&gt;&#10; &#160;&#160;&#160;&#160;&#160;&#160;&#160;&#160;&#160;&#160;&#160;&lt;td bgcolor=&quot;blue&quot; port=&quot;R&quot;&gt;&lt;/td&gt;&#10; &#160;&#160;&#160;&#160;&#160;&#160;&#160;&lt;/tr&gt; &#160;&#160;&#10; &#160;&#160;&#160;&#160;&lt;/table&gt; &#160;&#160;&#160;&#160;&#160;&#160;&#160;&#160;">
<ellipse fill="none" stroke="black" cx="177.29" cy="-18" rx="27" ry="18"/>
<text text-anchor="middle" x="177.29" y="-14.3" font-family="Times,serif" font-size="14.00">4</text>
</a>
</g>
</g>
<!-- C -->
<g id="node3" class="node">
<title>C</title>
<polygon fill="red" stroke="transparent" points="234.29,-5 234.29,-30 254.29,-30 254.29,-5 234.29,-5"/>
<polygon fill="none" stroke="black" points="234.29,-5 234.29,-30 254.29,-30 254.29,-5 234.29,-5"/>
<text text-anchor="start" x="239.29" y="-13.8" font-family="Times,serif" font-size="14.00">1</text>
<polygon fill="blue" stroke="transparent" points="254.29,-5 254.29,-30 264.29,-30 264.29,-5 254.29,-5"/>
<polygon fill="none" stroke="black" points="254.29,-5 254.29,-30 264.29,-30 264.29,-5 254.29,-5"/>
</g>
<!-- b -->
<g id="node4" class="node">
<title>b</title>
<ellipse fill="none" stroke="black" cx="336.29" cy="-18" rx="41.69" ry="18"/>
<polygon fill="orange" stroke="transparent" points="312.29,-10 312.29,-25 337.29,-25 337.29,-10 312.29,-10"/>
<text text-anchor="start" x="312.29" y="-13.8" font-family="Times,serif" font-size="14.00">abc</text>
<polygon fill="yellow" stroke="transparent" points="337.29,-10 337.29,-25 360.29,-25 360.29,-10 337.29,-10"/>
<text text-anchor="start" x="337.29" y="-13.8" font-family="Times,serif" font-size="14.00">def</text>
</g>
<!-- A -->
<g id="node5" class="node">
<title>A</title>
<ellipse fill="none" stroke="black" cx="437.29" cy="-18" rx="41.69" ry="18"/>
<polygon fill="orange" stroke="transparent" points="413.29,-10 413.29,-25 438.29,-25 438.29,-10 413.29,-10"/>
<text text-anchor="start" x="413.29" y="-13.8" font-family="Times,serif" font-size="14.00">abc</text>
<polygon fill="yellow" stroke="transparent" points="438.29,-10 438.29,-25 461.29,-25 461.29,-10 438.29,-10"/>
<text text-anchor="start" x="438.29" y="-13.8" font-family="Times,serif" font-size="14.00">def</text>
</g>
<!-- 0 -->
<g id="node6" class="node">
<title>0</title>
<ellipse fill="#ffffff" stroke="black" cx="524.29" cy="-18" rx="27" ry="18"/>
<text text-anchor="middle" x="524.29" y="-14.3" font-family="Times,serif" font-size="14.00">0</text>
</g>
<!-- 10 -->
<g id="node7" class="node">
<title>10</title>
<ellipse fill="#ffe5e5" stroke="black" cx="596.29" cy="-18" rx="27" ry="18"/>
<text text-anchor="middle" x="596.29" y="-14.3" font-family="Times,serif" font-size="14.00">10</text>
</g>
<!-- 20 -->
<g id="node8" class="node">
<title>20</title>
<ellipse fill="#ffcccc" stroke="black" cx="668.29" cy="-18" rx="27" ry="18"/>
<text text-anchor="middle" x="668.29" y="-14.3" font-family="Times,serif" font-size="14.00">20</text>
</g>
<!-- 30 -->
<g id="node9" class="node">
<title>30</title>
<ellipse fill="#ffb2b2" stroke="black" cx="740.29" cy="-18" rx="27" ry="18"/>
<text text-anchor="middle" x="740.29" y="-14.3" font-family="Times,serif" font-size="14.00">30</text>
</g>
<!-- 40 -->
<g id="node10" class="node">
<title>40</title>
<ellipse fill="#ff9999" stroke="black" cx="812.29" cy="-18" rx="27" ry="18"/>
<text text-anchor="middle" x="812.29" y="-14.3" font-family="Times,serif" font-size="14.00">40</text>
</g>
<!-- 50 -->
<g id="node11" class="node">
<title>50</title>
<ellipse fill="#ff7f7f" stroke="black" cx="884.29" cy="-18" rx="27" ry="18"/>
<text text-anchor="middle" x="884.29" y="-14.3" font-family="Times,serif" font-size="14.00">50</text>
</g>
<!-- 60 -->
<g id="node12" class="node">
<title>60</title>
<ellipse fill="#ff6666" stroke="black" cx="956.29" cy="-18" rx="27" ry="18"/>
<text text-anchor="middle" x="956.29" y="-14.3" font-family="Times,serif" font-size="14.00">60</text>
</g>
<!-- 70 -->
<g id="node13" class="node">
<title>70</title>
<ellipse fill="#ff4c4c" stroke="black" cx="1028.29" cy="-18" rx="27" ry="18"/>
<text text-anchor="middle" x="1028.29" y="-14.3" font-family="Times,serif" font-size="14.00">70</text>
</g>
<!-- 80 -->
<g id="node14" class="node">
<title>80</title>
<ellipse fill="#ff3232" stroke="black" cx="1100.29" cy="-18" rx="27" ry="18"/>
<text text-anchor="middle" x="1100.29" y="-14.3" font-family="Times,serif" font-size="14.00">80</text>
</g>
<!-- 90 -->
<g id="node15" class="node">
<title>90</title>
<ellipse fill="#ff1919" stroke="black" cx="1172.29" cy="-18" rx="27" ry="18"/>
<text text-anchor="middle" x="1172.29" y="-14.3" font-family="Times,serif" font-size="14.00">90</text>
</g>
<!-- 100 -->
<g id="node16" class="node">
<title>100</title>
<ellipse fill="#ff0000" stroke="black" cx="1246.29" cy="-18" rx="28.7" ry="18"/>
<text text-anchor="middle" x="1246.29" y="-14.3" font-family="Times,serif" font-size="14.00">100</text>
</g>
<!-- 101 -->
<g id="node17" class="node">
<title>101</title>
<ellipse fill="#ff0000" stroke="black" cx="1321.29" cy="-18" rx="28.7" ry="18"/>
<text text-anchor="middle" x="1321.29" y="-14.3" font-family="Times,serif" font-size="14.00">101</text>
</g>
</g>
</svg>
