<?xml version="1.0" encoding="UTF-8" standalone="no"?>
<!DOCTYPE svg PUBLIC "-//W3C//DTD SVG 1.1//EN"
 "http://www.w3.org/Graphics/SVG/1.1/DTD/svg11.dtd">
<!-- Generated by graphviz version 2.43.0 (0)
 -->
<!-- Title: G Pages: 1 -->
<svg width="386pt" height="44pt"
 viewBox="0.00 0.00 385.89 44.00" xmlns="http://www.w3.org/2000/svg" xmlns:xlink="http://www.w3.org/1999/xlink">
<g id="graph0" class="graph" transform="scale(1 1) rotate(0) translate(4 40)">
<title>G</title>
<polygon fill="white" stroke="transparent" points="-4,4 -4,-40 381.89,-40 381.89,4 -4,4"/>
<!-- a dummy -->
<g id="node1" class="node">
<title>a dummy</title>
<ellipse fill="none" stroke="black" cx="66.29" cy="-18" rx="66.09" ry="18"/>
<text text-anchor="middle" x="66.29" y="-14.3" font-family="Times,serif" font-size="14.00">This is label</text>
</g>
<!-- 2 -->
<g id="node2" class="node">
<title>2</title>
<ellipse fill="none" stroke="black" cx="177.29" cy="-18" rx="27" ry="18"/>
<text text-anchor="middle" x="177.29" y="-14.3" font-family="Times,serif" font-size="14.00">2</text>
</g>
<!-- C -->
<g id="node3" class="node">
<title>C</title>
<polygon fill="red" stroke="transparent" points="234.29,-5 234.29,-30 254.29,-30 254.29,-5 234.29,-5"/>
<polygon fill="none" stroke="black" points="234.29,-5 234.29,-30 254.29,-30 254.29,-5 234.29,-5"/>
<text text-anchor="start" x="239.29" y="-13.8" font-family="Times,serif" font-size="14.00">1</text>
<polygon fill="blue" stroke="transparent" points="254.29,-5 254.29,-30 264.29,-30 264.29,-5 254.29,-5"/>
<polygon fill="none" stroke="black" points="254.29,-5 254.29,-30 264.29,-30 264.29,-5 254.29,-5"/>
</g>
<!-- b -->
<g id="node4" class="node">
<title>b</title>
<ellipse fill="none" stroke="black" cx="336.29" cy="-18" rx="41.69" ry="18"/>
<polygon fill="orange" stroke="transparent" points="312.29,-10 312.29,-25 337.29,-25 337.29,-10 312.29,-10"/>
<text text-anchor="start" x="312.29" y="-13.8" font-family="Times,serif" font-size="14.00">abc</text>
<polygon fill="yellow" stroke="transparent" points="337.29,-10 337.29,-25 360.29,-25 360.29,-10 337.29,-10"/>
<text text-anchor="start" x="337.29" y="-13.8" font-family="Times,serif" font-size="14.00">def</text>
</g>
</g>
</svg>
