<?xml version="1.0" encoding="UTF-8" standalone="no"?>
<!DOCTYPE svg PUBLIC "-//W3C//DTD SVG 1.1//EN"
 "http://www.w3.org/Graphics/SVG/1.1/DTD/svg11.dtd">
<!-- Generated by graphviz version 2.43.0 (0)
 -->
<!-- Title: G Pages: 1 -->
<svg width="395pt" height="260pt"
 viewBox="0.00 0.00 394.99 260.00" xmlns="http://www.w3.org/2000/svg" xmlns:xlink="http://www.w3.org/1999/xlink">
<g id="graph0" class="graph" transform="scale(1 1) rotate(0) translate(4 256)">
<title>G</title>
<polygon fill="white" stroke="transparent" points="-4,4 -4,-256 390.99,-256 390.99,4 -4,4"/>
<!-- (&#39;S1&#39;, &#39;O1&#39;) -->
<g id="node1" class="node">
<title>(&#39;S1&#39;, &#39;O1&#39;)</title>
<ellipse fill="none" stroke="black" cx="193.49" cy="-234" rx="58.49" ry="18"/>
<text text-anchor="middle" x="193.49" y="-230.3" font-family="Times,serif" font-size="14.00">(&#39;S1&#39;, &#39;O1&#39;)</text>
</g>
<!-- (&#39;S2&#39;, &#39;O2&#39;) -->
<g id="node2" class="node">
<title>(&#39;S2&#39;, &#39;O2&#39;)</title>
<ellipse fill="none" stroke="black" cx="193.49" cy="-162" rx="58.49" ry="18"/>
<text text-anchor="middle" x="193.49" y="-158.3" font-family="Times,serif" font-size="14.00">(&#39;S2&#39;, &#39;O2&#39;)</text>
</g>
<!-- (&#39;S1&#39;, &#39;O1&#39;)&#45;&gt;(&#39;S2&#39;, &#39;O2&#39;) -->
<g id="edge1" class="edge">
<title>(&#39;S1&#39;, &#39;O1&#39;)&#45;&gt;(&#39;S2&#39;, &#39;O2&#39;)</title>
<path fill="none" stroke="black" stroke-width="2" d="M193.49,-215.7C193.49,-207.98 193.49,-198.71 193.49,-190.11"/>
<polygon fill="black" stroke="black" stroke-width="2" points="196.99,-190.1 193.49,-180.1 189.99,-190.1 196.99,-190.1"/>
</g>
<!-- (&#39;S3&#39;, &#39;O3&#39;) -->
<g id="node4" class="node">
<title>(&#39;S3&#39;, &#39;O3&#39;)</title>
<ellipse fill="none" stroke="black" cx="328.49" cy="-162" rx="58.49" ry="18"/>
<text text-anchor="middle" x="328.49" y="-158.3" font-family="Times,serif" font-size="14.00">(&#39;S3&#39;, &#39;O3&#39;)</text>
</g>
<!-- (&#39;S1&#39;, &#39;O1&#39;)&#45;&gt;(&#39;S3&#39;, &#39;O3&#39;) -->
<g id="edge2" class="edge">
<title>(&#39;S1&#39;, &#39;O1&#39;)&#45;&gt;(&#39;S3&#39;, &#39;O3&#39;)</title>
<path fill="none" stroke="black" d="M222.12,-218.15C242.17,-207.76 269.16,-193.77 290.93,-182.48"/>
<polygon fill="black" stroke="black" points="292.64,-185.53 299.91,-177.82 289.42,-179.32 292.64,-185.53"/>
</g>
<!-- (&#39;S5&#39;, &#39;O5&#39;) -->
<g id="node3" class="node">
<title>(&#39;S5&#39;, &#39;O5&#39;)</title>
<ellipse fill="none" stroke="black" cx="58.49" cy="-90" rx="58.49" ry="18"/>
<text text-anchor="middle" x="58.49" y="-86.3" font-family="Times,serif" font-size="14.00">(&#39;S5&#39;, &#39;O5&#39;)</text>
</g>
<!-- (&#39;S2&#39;, &#39;O2&#39;)&#45;&gt;(&#39;S5&#39;, &#39;O5&#39;) -->
<g id="edge4" class="edge">
<title>(&#39;S2&#39;, &#39;O2&#39;)&#45;&gt;(&#39;S5&#39;, &#39;O5&#39;)</title>
<path fill="none" stroke="black" d="M164.86,-146.15C144.82,-135.76 117.83,-121.77 96.06,-110.48"/>
<polygon fill="black" stroke="black" points="97.57,-107.32 87.08,-105.82 94.35,-113.53 97.57,-107.32"/>
</g>
<!-- (&#39;S4&#39;, &#39;O4&#39;) -->
<g id="node6" class="node">
<title>(&#39;S4&#39;, &#39;O4&#39;)</title>
<ellipse fill="none" stroke="black" cx="193.49" cy="-90" rx="58.49" ry="18"/>
<text text-anchor="middle" x="193.49" y="-86.3" font-family="Times,serif" font-size="14.00">(&#39;S4&#39;, &#39;O4&#39;)</text>
</g>
<!-- (&#39;S2&#39;, &#39;O2&#39;)&#45;&gt;(&#39;S4&#39;, &#39;O4&#39;) -->
<g id="edge3" class="edge">
<title>(&#39;S2&#39;, &#39;O2&#39;)&#45;&gt;(&#39;S4&#39;, &#39;O4&#39;)</title>
<path fill="none" stroke="black" d="M193.49,-143.7C193.49,-135.98 193.49,-126.71 193.49,-118.11"/>
<polygon fill="black" stroke="black" points="196.99,-118.1 193.49,-108.1 189.99,-118.1 196.99,-118.1"/>
</g>
<!-- (&#39;S6&#39;, &#39;O6&#39;) -->
<g id="node7" class="node">
<title>(&#39;S6&#39;, &#39;O6&#39;)</title>
<ellipse fill="none" stroke="black" cx="58.49" cy="-18" rx="58.49" ry="18"/>
<text text-anchor="middle" x="58.49" y="-14.3" font-family="Times,serif" font-size="14.00">(&#39;S6&#39;, &#39;O6&#39;)</text>
</g>
<!-- (&#39;S5&#39;, &#39;O5&#39;)&#45;&gt;(&#39;S6&#39;, &#39;O6&#39;) -->
<g id="edge5" class="edge">
<title>(&#39;S5&#39;, &#39;O5&#39;)&#45;&gt;(&#39;S6&#39;, &#39;O6&#39;)</title>
<path fill="none" stroke="black" d="M58.49,-71.7C58.49,-63.98 58.49,-54.71 58.49,-46.11"/>
<polygon fill="black" stroke="black" points="61.99,-46.1 58.49,-36.1 54.99,-46.1 61.99,-46.1"/>
</g>
<!-- (&#39;S7&#39;, &#39;O7&#39;) -->
<g id="node5" class="node">
<title>(&#39;S7&#39;, &#39;O7&#39;)</title>
<ellipse fill="none" stroke="black" cx="328.49" cy="-90" rx="58.49" ry="18"/>
<text text-anchor="middle" x="328.49" y="-86.3" font-family="Times,serif" font-size="14.00">(&#39;S7&#39;, &#39;O7&#39;)</text>
</g>
<!-- (&#39;S3&#39;, &#39;O3&#39;)&#45;&gt;(&#39;S7&#39;, &#39;O7&#39;) -->
<g id="edge6" class="edge">
<title>(&#39;S3&#39;, &#39;O3&#39;)&#45;&gt;(&#39;S7&#39;, &#39;O7&#39;)</title>
<path fill="none" stroke="black" d="M328.49,-143.7C328.49,-135.98 328.49,-126.71 328.49,-118.11"/>
<polygon fill="black" stroke="black" points="331.99,-118.1 328.49,-108.1 324.99,-118.1 331.99,-118.1"/>
</g>
<!-- (&#39;S8&#39;, &#39;O8&#39;) -->
<g id="node8" class="node">
<title>(&#39;S8&#39;, &#39;O8&#39;)</title>
<ellipse fill="none" stroke="black" cx="328.49" cy="-18" rx="58.49" ry="18"/>
<text text-anchor="middle" x="328.49" y="-14.3" font-family="Times,serif" font-size="14.00">(&#39;S8&#39;, &#39;O8&#39;)</text>
</g>
<!-- (&#39;S7&#39;, &#39;O7&#39;)&#45;&gt;(&#39;S8&#39;, &#39;O8&#39;) -->
<g id="edge7" class="edge">
<title>(&#39;S7&#39;, &#39;O7&#39;)&#45;&gt;(&#39;S8&#39;, &#39;O8&#39;)</title>
<path fill="none" stroke="black" d="M328.49,-71.7C328.49,-63.98 328.49,-54.71 328.49,-46.11"/>
<polygon fill="black" stroke="black" points="331.99,-46.1 328.49,-36.1 324.99,-46.1 331.99,-46.1"/>
</g>
</g>
</svg>
