<?xml version="1.0" encoding="UTF-8" standalone="no"?>
<!DOCTYPE svg PUBLIC "-//W3C//DTD SVG 1.1//EN"
 "http://www.w3.org/Graphics/SVG/1.1/DTD/svg11.dtd">
<!-- Generated by graphviz version 2.43.0 (0)
 -->
<!-- Title: G Pages: 1 -->
<svg width="395pt" height="305pt"
 viewBox="0.00 0.00 394.99 305.00" xmlns="http://www.w3.org/2000/svg" xmlns:xlink="http://www.w3.org/1999/xlink">
<g id="graph0" class="graph" transform="scale(1 1) rotate(0) translate(4 301)">
<title>G</title>
<polygon fill="white" stroke="transparent" points="-4,4 -4,-301 390.99,-301 390.99,4 -4,4"/>
<!-- (&#39;S1&#39;, &#39;O1&#39;) -->
<g id="node1" class="node">
<title>(&#39;S1&#39;, &#39;O1&#39;)</title>
<ellipse fill="none" stroke="black" cx="328.49" cy="-18" rx="58.49" ry="18"/>
<text text-anchor="middle" x="328.49" y="-14.3" font-family="Times,serif" font-size="14.00">(&#39;S1&#39;, &#39;O1&#39;)</text>
</g>
<!-- (&#39;S2&#39;, &#39;O2&#39;) -->
<g id="node2" class="node">
<title>(&#39;S2&#39;, &#39;O2&#39;)</title>
<ellipse fill="none" stroke="black" cx="234.49" cy="-105" rx="58.49" ry="18"/>
<text text-anchor="middle" x="234.49" y="-101.3" font-family="Times,serif" font-size="14.00">(&#39;S2&#39;, &#39;O2&#39;)</text>
</g>
<!-- (&#39;S2&#39;, &#39;O2&#39;)&#45;&gt;(&#39;S1&#39;, &#39;O1&#39;) -->
<g id="edge1" class="edge">
<title>(&#39;S2&#39;, &#39;O2&#39;)&#45;&gt;(&#39;S1&#39;, &#39;O1&#39;)</title>
<path fill="none" stroke="black" d="M252.62,-87.61C266.92,-74.68 287.05,-56.47 302.99,-42.07"/>
<polygon fill="black" stroke="black" points="305.36,-44.64 310.43,-35.34 300.66,-39.45 305.36,-44.64"/>
<text text-anchor="middle" x="292.49" y="-57.8" font-family="Times,serif" font-size="14.00">2</text>
</g>
<!-- (&#39;S5&#39;, &#39;O5&#39;) -->
<g id="node3" class="node">
<title>(&#39;S5&#39;, &#39;O5&#39;)</title>
<ellipse fill="none" stroke="black" cx="58.49" cy="-192" rx="58.49" ry="18"/>
<text text-anchor="middle" x="58.49" y="-188.3" font-family="Times,serif" font-size="14.00">(&#39;S5&#39;, &#39;O5&#39;)</text>
</g>
<!-- (&#39;S5&#39;, &#39;O5&#39;)&#45;&gt;(&#39;S2&#39;, &#39;O2&#39;) -->
<g id="edge5" class="edge">
<title>(&#39;S5&#39;, &#39;O5&#39;)&#45;&gt;(&#39;S2&#39;, &#39;O2&#39;)</title>
<path fill="none" stroke="black" d="M88.75,-176.39C118.18,-162.17 163.04,-140.51 195.21,-124.97"/>
<polygon fill="black" stroke="black" points="196.86,-128.06 204.34,-120.56 193.81,-121.76 196.86,-128.06"/>
<text text-anchor="middle" x="162.49" y="-144.8" font-family="Times,serif" font-size="14.00">1</text>
</g>
<!-- (&#39;S4&#39;, &#39;O4&#39;) -->
<g id="node4" class="node">
<title>(&#39;S4&#39;, &#39;O4&#39;)</title>
<ellipse fill="none" stroke="black" cx="193.49" cy="-192" rx="58.49" ry="18"/>
<text text-anchor="middle" x="193.49" y="-188.3" font-family="Times,serif" font-size="14.00">(&#39;S4&#39;, &#39;O4&#39;)</text>
</g>
<!-- (&#39;S4&#39;, &#39;O4&#39;)&#45;&gt;(&#39;S2&#39;, &#39;O2&#39;) -->
<g id="edge4" class="edge">
<title>(&#39;S4&#39;, &#39;O4&#39;)&#45;&gt;(&#39;S2&#39;, &#39;O2&#39;)</title>
<path fill="none" stroke="black" d="M201.79,-173.8C207.55,-161.85 215.34,-145.72 221.87,-132.18"/>
<polygon fill="black" stroke="black" points="225.16,-133.41 226.35,-122.89 218.85,-130.37 225.16,-133.41"/>
<text text-anchor="middle" x="221.49" y="-144.8" font-family="Times,serif" font-size="14.00">1</text>
</g>
<!-- (&#39;S6&#39;, &#39;O6&#39;) -->
<g id="node5" class="node">
<title>(&#39;S6&#39;, &#39;O6&#39;)</title>
<ellipse fill="none" stroke="black" cx="58.49" cy="-279" rx="58.49" ry="18"/>
<text text-anchor="middle" x="58.49" y="-275.3" font-family="Times,serif" font-size="14.00">(&#39;S6&#39;, &#39;O6&#39;)</text>
</g>
<!-- (&#39;S6&#39;, &#39;O6&#39;)&#45;&gt;(&#39;S5&#39;, &#39;O5&#39;) -->
<g id="edge6" class="edge">
<title>(&#39;S6&#39;, &#39;O6&#39;)&#45;&gt;(&#39;S5&#39;, &#39;O5&#39;)</title>
<path fill="none" stroke="black" d="M58.49,-260.8C58.49,-249.16 58.49,-233.55 58.49,-220.24"/>
<polygon fill="black" stroke="black" points="61.99,-220.18 58.49,-210.18 54.99,-220.18 61.99,-220.18"/>
<text text-anchor="middle" x="63.49" y="-231.8" font-family="Times,serif" font-size="14.00">1</text>
</g>
<!-- (&#39;S3&#39;, &#39;O3&#39;) -->
<g id="node6" class="node">
<title>(&#39;S3&#39;, &#39;O3&#39;)</title>
<ellipse fill="none" stroke="black" cx="328.49" cy="-192" rx="58.49" ry="18"/>
<text text-anchor="middle" x="328.49" y="-188.3" font-family="Times,serif" font-size="14.00">(&#39;S3&#39;, &#39;O3&#39;)</text>
</g>
<!-- (&#39;S3&#39;, &#39;O3&#39;)&#45;&gt;(&#39;S1&#39;, &#39;O1&#39;) -->
<g id="edge2" class="edge">
<title>(&#39;S3&#39;, &#39;O3&#39;)&#45;&gt;(&#39;S1&#39;, &#39;O1&#39;)</title>
<path fill="none" stroke="black" d="M328.49,-173.88C328.49,-144 328.49,-82.11 328.49,-46.27"/>
<polygon fill="black" stroke="black" points="331.99,-46.05 328.49,-36.05 324.99,-46.05 331.99,-46.05"/>
<text text-anchor="middle" x="333.49" y="-101.3" font-family="Times,serif" font-size="14.00">3</text>
</g>
<!-- (&#39;S3&#39;, &#39;O3&#39;)&#45;&gt;(&#39;S2&#39;, &#39;O2&#39;) -->
<g id="edge3" class="edge">
<title>(&#39;S3&#39;, &#39;O3&#39;)&#45;&gt;(&#39;S2&#39;, &#39;O2&#39;)</title>
<path fill="none" stroke="black" d="M310.37,-174.61C296.07,-161.68 275.94,-143.47 260,-129.07"/>
<polygon fill="black" stroke="black" points="262.33,-126.45 252.56,-122.34 257.63,-131.64 262.33,-126.45"/>
<text text-anchor="middle" x="292.49" y="-144.8" font-family="Times,serif" font-size="14.00">1</text>
</g>
</g>
</svg>
