<?xml version="1.0" encoding="UTF-8" standalone="no"?>
<!DOCTYPE svg PUBLIC "-//W3C//DTD SVG 1.1//EN"
 "http://www.w3.org/Graphics/SVG/1.1/DTD/svg11.dtd">
<!-- Generated by graphviz version 7.1.0 (20230121.1956)
 -->
<!-- Title: G Pages: 1 -->
<svg width="257pt" height="392pt"
 viewBox="0.00 0.00 256.88 392.00" xmlns="http://www.w3.org/2000/svg" xmlns:xlink="http://www.w3.org/1999/xlink">
<g id="graph0" class="graph" transform="scale(1 1) rotate(0) translate(4 388)">
<title>G</title>
<polygon fill="white" stroke="none" points="-4,4 -4,-388 252.88,-388 252.88,4 -4,4"/>
<!-- (&#39;S1&#39;, &#39;O1&#39;) -->
<g id="node1" class="node">
<title>(&#39;S1&#39;, &#39;O1&#39;)</title>
<ellipse fill="none" stroke="black" cx="138.88" cy="-18" rx="47.39" ry="18"/>
<text text-anchor="middle" x="138.88" y="-14.3" font-family="Times,serif" font-size="14.00">(&#39;S1&#39;, &#39;O1&#39;)</text>
</g>
<!-- (&#39;S2&#39;, &#39;O2&#39;) -->
<g id="node2" class="node">
<title>(&#39;S2&#39;, &#39;O2&#39;)</title>
<ellipse fill="none" stroke="black" cx="53.88" cy="-192" rx="47.39" ry="18"/>
<text text-anchor="middle" x="53.88" y="-188.3" font-family="Times,serif" font-size="14.00">(&#39;S2&#39;, &#39;O2&#39;)</text>
</g>
<!-- (&#39;S2&#39;, &#39;O2&#39;)&#45;&gt;(&#39;S1&#39;, &#39;O1&#39;) -->
<g id="edge1" class="edge">
<title>(&#39;S2&#39;, &#39;O2&#39;)&#45;&gt;(&#39;S1&#39;, &#39;O1&#39;)</title>
<path fill="none" stroke="black" d="M36.7,-174.91C16.48,-153.95 -12.18,-116.52 5.88,-87 23.58,-58.07 57.91,-40.95 87.26,-31.12"/>
<polygon fill="black" stroke="black" points="88.26,-34.48 96.77,-28.16 86.18,-27.79 88.26,-34.48"/>
<text text-anchor="middle" x="9.38" y="-101.3" font-family="Times,serif" font-size="14.00">2</text>
</g>
<!-- (&#39;S5&#39;, &#39;O5&#39;) -->
<g id="node3" class="node">
<title>(&#39;S5&#39;, &#39;O5&#39;)</title>
<ellipse fill="none" stroke="black" cx="68.88" cy="-105" rx="47.39" ry="18"/>
<text text-anchor="middle" x="68.88" y="-101.3" font-family="Times,serif" font-size="14.00">(&#39;S5&#39;, &#39;O5&#39;)</text>
</g>
<!-- (&#39;S2&#39;, &#39;O2&#39;)&#45;&gt;(&#39;S5&#39;, &#39;O5&#39;) -->
<g id="edge8" class="edge">
<title>(&#39;S2&#39;, &#39;O2&#39;)&#45;&gt;(&#39;S5&#39;, &#39;O5&#39;)</title>
<path fill="none" stroke="black" d="M49.74,-173.64C48.1,-163.91 47.18,-151.63 49.88,-141 50.55,-138.34 51.47,-135.67 52.55,-133.05"/>
<polygon fill="black" stroke="black" points="55.68,-134.62 56.94,-124.1 49.39,-131.54 55.68,-134.62"/>
<text text-anchor="middle" x="53.38" y="-144.8" font-family="Times,serif" font-size="14.00">1</text>
</g>
<!-- (&#39;S3&#39;, &#39;O3&#39;) -->
<g id="node6" class="node">
<title>(&#39;S3&#39;, &#39;O3&#39;)</title>
<ellipse fill="none" stroke="black" cx="181.88" cy="-105" rx="47.39" ry="18"/>
<text text-anchor="middle" x="181.88" y="-101.3" font-family="Times,serif" font-size="14.00">(&#39;S3&#39;, &#39;O3&#39;)</text>
</g>
<!-- (&#39;S2&#39;, &#39;O2&#39;)&#45;&gt;(&#39;S3&#39;, &#39;O3&#39;) -->
<g id="edge11" class="edge">
<title>(&#39;S2&#39;, &#39;O2&#39;)&#45;&gt;(&#39;S3&#39;, &#39;O3&#39;)</title>
<path fill="none" stroke="black" d="M68.86,-174.75C79.14,-164.23 93.48,-150.73 107.88,-141 117.59,-134.43 128.73,-128.47 139.37,-123.39"/>
<polygon fill="black" stroke="black" points="140.75,-126.6 148.39,-119.26 137.84,-120.24 140.75,-126.6"/>
<text text-anchor="middle" x="111.38" y="-144.8" font-family="Times,serif" font-size="14.00">1</text>
</g>
<!-- (&#39;S5&#39;, &#39;O5&#39;)&#45;&gt;(&#39;S1&#39;, &#39;O1&#39;) -->
<g id="edge3" class="edge">
<title>(&#39;S5&#39;, &#39;O5&#39;)&#45;&gt;(&#39;S1&#39;, &#39;O1&#39;)</title>
<path fill="none" stroke="black" d="M82.37,-87.61C92.48,-75.34 106.48,-58.34 118.02,-44.32"/>
<polygon fill="black" stroke="black" points="120.57,-46.74 124.22,-36.8 115.16,-42.29 120.57,-46.74"/>
<text text-anchor="middle" x="112.38" y="-57.8" font-family="Times,serif" font-size="14.00">1</text>
</g>
<!-- (&#39;S5&#39;, &#39;O5&#39;)&#45;&gt;(&#39;S2&#39;, &#39;O2&#39;) -->
<g id="edge6" class="edge">
<title>(&#39;S5&#39;, &#39;O5&#39;)&#45;&gt;(&#39;S2&#39;, &#39;O2&#39;)</title>
<path fill="none" stroke="black" d="M65.85,-123.18C63.85,-134.46 61.2,-149.5 58.9,-162.54"/>
<polygon fill="black" stroke="black" points="55.47,-161.85 57.18,-172.31 62.36,-163.07 55.47,-161.85"/>
<text text-anchor="middle" x="66.38" y="-144.8" font-family="Times,serif" font-size="14.00">2</text>
</g>
<!-- (&#39;S4&#39;, &#39;O4&#39;) -->
<g id="node4" class="node">
<title>(&#39;S4&#39;, &#39;O4&#39;)</title>
<ellipse fill="none" stroke="black" cx="53.88" cy="-279" rx="47.39" ry="18"/>
<text text-anchor="middle" x="53.88" y="-275.3" font-family="Times,serif" font-size="14.00">(&#39;S4&#39;, &#39;O4&#39;)</text>
</g>
<!-- (&#39;S4&#39;, &#39;O4&#39;)&#45;&gt;(&#39;S2&#39;, &#39;O2&#39;) -->
<g id="edge5" class="edge">
<title>(&#39;S4&#39;, &#39;O4&#39;)&#45;&gt;(&#39;S2&#39;, &#39;O2&#39;)</title>
<path fill="none" stroke="black" d="M53.88,-260.8C53.88,-249.58 53.88,-234.67 53.88,-221.69"/>
<polygon fill="black" stroke="black" points="57.38,-221.98 53.88,-211.98 50.38,-221.98 57.38,-221.98"/>
<text text-anchor="middle" x="57.38" y="-231.8" font-family="Times,serif" font-size="14.00">2</text>
</g>
<!-- (&#39;S6&#39;, &#39;O6&#39;) -->
<g id="node5" class="node">
<title>(&#39;S6&#39;, &#39;O6&#39;)</title>
<ellipse fill="none" stroke="black" cx="181.88" cy="-192" rx="47.39" ry="18"/>
<text text-anchor="middle" x="181.88" y="-188.3" font-family="Times,serif" font-size="14.00">(&#39;S6&#39;, &#39;O6&#39;)</text>
</g>
<!-- (&#39;S6&#39;, &#39;O6&#39;)&#45;&gt;(&#39;S1&#39;, &#39;O1&#39;) -->
<g id="edge4" class="edge">
<title>(&#39;S6&#39;, &#39;O6&#39;)&#45;&gt;(&#39;S1&#39;, &#39;O1&#39;)</title>
<path fill="none" stroke="black" d="M200.93,-175.19C223.02,-154.85 254.4,-118.39 237.88,-87 225.86,-64.17 202.33,-47.52 181.22,-36.41"/>
<polygon fill="black" stroke="black" points="182.98,-33.38 172.47,-32.07 179.88,-39.65 182.98,-33.38"/>
<text text-anchor="middle" x="245.38" y="-101.3" font-family="Times,serif" font-size="14.00">1</text>
</g>
<!-- (&#39;S6&#39;, &#39;O6&#39;)&#45;&gt;(&#39;S5&#39;, &#39;O5&#39;) -->
<g id="edge7" class="edge">
<title>(&#39;S6&#39;, &#39;O6&#39;)&#45;&gt;(&#39;S5&#39;, &#39;O5&#39;)</title>
<path fill="none" stroke="black" d="M161.4,-175.42C148.38,-165.53 131.16,-152.48 115.88,-141 110.22,-136.75 104.16,-132.23 98.35,-127.89"/>
<polygon fill="black" stroke="black" points="100.82,-125.37 90.71,-122.2 96.64,-130.98 100.82,-125.37"/>
<text text-anchor="middle" x="138.38" y="-144.8" font-family="Times,serif" font-size="14.00">1</text>
</g>
<!-- (&#39;S6&#39;, &#39;O6&#39;)&#45;&gt;(&#39;S3&#39;, &#39;O3&#39;) -->
<g id="edge10" class="edge">
<title>(&#39;S6&#39;, &#39;O6&#39;)&#45;&gt;(&#39;S3&#39;, &#39;O3&#39;)</title>
<path fill="none" stroke="black" d="M181.88,-173.8C181.88,-162.58 181.88,-147.67 181.88,-134.69"/>
<polygon fill="black" stroke="black" points="185.38,-134.98 181.88,-124.98 178.38,-134.98 185.38,-134.98"/>
<text text-anchor="middle" x="185.38" y="-144.8" font-family="Times,serif" font-size="14.00">1</text>
</g>
<!-- (&#39;S3&#39;, &#39;O3&#39;)&#45;&gt;(&#39;S1&#39;, &#39;O1&#39;) -->
<g id="edge2" class="edge">
<title>(&#39;S3&#39;, &#39;O3&#39;)&#45;&gt;(&#39;S1&#39;, &#39;O1&#39;)</title>
<path fill="none" stroke="black" d="M173.38,-87.21C167.47,-75.52 159.46,-59.69 152.65,-46.22"/>
<polygon fill="black" stroke="black" points="155.82,-44.74 148.19,-37.4 149.58,-47.9 155.82,-44.74"/>
<text text-anchor="middle" x="167.38" y="-57.8" font-family="Times,serif" font-size="14.00">2</text>
</g>
<!-- (&#39;S7&#39;, &#39;O7&#39;) -->
<g id="node7" class="node">
<title>(&#39;S7&#39;, &#39;O7&#39;)</title>
<ellipse fill="none" stroke="black" cx="181.88" cy="-279" rx="47.39" ry="18"/>
<text text-anchor="middle" x="181.88" y="-275.3" font-family="Times,serif" font-size="14.00">(&#39;S7&#39;, &#39;O7&#39;)</text>
</g>
<!-- (&#39;S7&#39;, &#39;O7&#39;)&#45;&gt;(&#39;S6&#39;, &#39;O6&#39;) -->
<g id="edge9" class="edge">
<title>(&#39;S7&#39;, &#39;O7&#39;)&#45;&gt;(&#39;S6&#39;, &#39;O6&#39;)</title>
<path fill="none" stroke="black" d="M181.88,-260.8C181.88,-249.58 181.88,-234.67 181.88,-221.69"/>
<polygon fill="black" stroke="black" points="185.38,-221.98 181.88,-211.98 178.38,-221.98 185.38,-221.98"/>
<text text-anchor="middle" x="185.38" y="-231.8" font-family="Times,serif" font-size="14.00">1</text>
</g>
<!-- (&#39;S8&#39;, &#39;O8&#39;) -->
<g id="node8" class="node">
<title>(&#39;S8&#39;, &#39;O8&#39;)</title>
<ellipse fill="none" stroke="black" cx="181.88" cy="-366" rx="47.39" ry="18"/>
<text text-anchor="middle" x="181.88" y="-362.3" font-family="Times,serif" font-size="14.00">(&#39;S8&#39;, &#39;O8&#39;)</text>
</g>
<!-- (&#39;S8&#39;, &#39;O8&#39;)&#45;&gt;(&#39;S7&#39;, &#39;O7&#39;) -->
<g id="edge12" class="edge">
<title>(&#39;S8&#39;, &#39;O8&#39;)&#45;&gt;(&#39;S7&#39;, &#39;O7&#39;)</title>
<path fill="none" stroke="black" d="M181.88,-347.8C181.88,-336.58 181.88,-321.67 181.88,-308.69"/>
<polygon fill="black" stroke="black" points="185.38,-308.98 181.88,-298.98 178.38,-308.98 185.38,-308.98"/>
<text text-anchor="middle" x="185.38" y="-318.8" font-family="Times,serif" font-size="14.00">1</text>
</g>
</g>
</svg>
